<mxfile host="65bd71144e">
    <diagram id="jqz4A1UIjfdPqVLPxfQ6" name="Page-1">
        <mxGraphModel dx="1007" dy="773" grid="1" gridSize="10" guides="1" tooltips="1" connect="1" arrows="1" fold="1" page="1" pageScale="1" pageWidth="827" pageHeight="1169" math="0" shadow="0">
            <root>
                <mxCell id="0"/>
                <mxCell id="1" parent="0"/>
                <mxCell id="37" value="" style="rounded=0;whiteSpace=wrap;html=1;" vertex="1" parent="1">
                    <mxGeometry x="320" y="40" width="430" height="880" as="geometry"/>
                </mxCell>
                <mxCell id="2" value="Server" style="shape=umlActor;verticalLabelPosition=bottom;verticalAlign=top;html=1;outlineConnect=0;" parent="1" vertex="1">
                    <mxGeometry x="90" y="340" width="30" height="60" as="geometry"/>
                </mxCell>
                <mxCell id="7" value="Lister des parties" style="ellipse;whiteSpace=wrap;html=1;" parent="1" vertex="1">
                    <mxGeometry x="380" y="160" width="120" height="80" as="geometry"/>
                </mxCell>
                <mxCell id="8" value="Lister les parties d'un client" style="ellipse;whiteSpace=wrap;html=1;" parent="1" vertex="1">
                    <mxGeometry x="610" y="200" width="120" height="80" as="geometry"/>
                </mxCell>
                <mxCell id="9" value="Lister les parties en attente d'inscription" style="ellipse;whiteSpace=wrap;html=1;" parent="1" vertex="1">
                    <mxGeometry x="590" y="80" width="120" height="80" as="geometry"/>
                </mxCell>
                <mxCell id="10" value="" style="endArrow=classic;html=1;dashed=1;" parent="1" source="8" target="7" edge="1">
                    <mxGeometry relative="1" as="geometry">
                        <mxPoint x="330" y="380" as="sourcePoint"/>
                        <mxPoint x="490" y="380" as="targetPoint"/>
                    </mxGeometry>
                </mxCell>
                <mxCell id="11" value="Include" style="edgeLabel;resizable=0;html=1;align=center;verticalAlign=middle;" parent="10" connectable="0" vertex="1">
                    <mxGeometry relative="1" as="geometry"/>
                </mxCell>
                <mxCell id="13" value="" style="endArrow=classic;html=1;entryX=0.967;entryY=0.288;entryDx=0;entryDy=0;exitX=0.025;exitY=0.625;exitDx=0;exitDy=0;exitPerimeter=0;entryPerimeter=0;dashed=1;" parent="1" source="9" target="7" edge="1">
                    <mxGeometry relative="1" as="geometry">
                        <mxPoint x="360" y="380" as="sourcePoint"/>
                        <mxPoint x="460" y="380" as="targetPoint"/>
                    </mxGeometry>
                </mxCell>
                <mxCell id="16" value="Include" style="edgeLabel;html=1;align=center;verticalAlign=middle;resizable=0;points=[];" parent="13" vertex="1" connectable="0">
                    <mxGeometry x="-0.3024" y="2" relative="1" as="geometry">
                        <mxPoint as="offset"/>
                    </mxGeometry>
                </mxCell>
                <mxCell id="17" value="" style="endArrow=classic;html=1;entryX=0;entryY=0.7;entryDx=0;entryDy=0;entryPerimeter=0;" parent="1" source="2" target="7" edge="1">
                    <mxGeometry width="50" height="50" relative="1" as="geometry">
                        <mxPoint x="390" y="410" as="sourcePoint"/>
                        <mxPoint x="440" y="360" as="targetPoint"/>
                    </mxGeometry>
                </mxCell>
                <mxCell id="18" value="Créer une partie" style="ellipse;whiteSpace=wrap;html=1;" parent="1" vertex="1">
                    <mxGeometry x="380" y="300" width="120" height="80" as="geometry"/>
                </mxCell>
                <mxCell id="19" value="" style="endArrow=classic;html=1;entryX=0.017;entryY=0.663;entryDx=0;entryDy=0;entryPerimeter=0;" parent="1" source="2" target="18" edge="1">
                    <mxGeometry width="50" height="50" relative="1" as="geometry">
                        <mxPoint x="390" y="410" as="sourcePoint"/>
                        <mxPoint x="440" y="360" as="targetPoint"/>
                    </mxGeometry>
                </mxCell>
                <mxCell id="20" value="Met fin à une partie" style="ellipse;whiteSpace=wrap;html=1;" parent="1" vertex="1">
                    <mxGeometry x="380" y="420" width="120" height="80" as="geometry"/>
                </mxCell>
                <mxCell id="21" value="" style="endArrow=classic;html=1;entryX=0;entryY=0.288;entryDx=0;entryDy=0;entryPerimeter=0;" parent="1" source="2" target="20" edge="1">
                    <mxGeometry width="50" height="50" relative="1" as="geometry">
                        <mxPoint x="120" y="379.4545454545455" as="sourcePoint"/>
                        <mxPoint x="380" y="370" as="targetPoint"/>
                    </mxGeometry>
                </mxCell>
                <mxCell id="22" value="Gère l'avancement d'un partie" style="ellipse;whiteSpace=wrap;html=1;" parent="1" vertex="1">
                    <mxGeometry x="380" y="545" width="120" height="80" as="geometry"/>
                </mxCell>
                <mxCell id="23" value="" style="endArrow=classic;html=1;" parent="1" source="2" target="22" edge="1">
                    <mxGeometry width="50" height="50" relative="1" as="geometry">
                        <mxPoint x="390" y="580" as="sourcePoint"/>
                        <mxPoint x="440" y="530" as="targetPoint"/>
                    </mxGeometry>
                </mxCell>
                <mxCell id="24" value="Met fin à la nuit" style="ellipse;whiteSpace=wrap;html=1;" parent="1" vertex="1">
                    <mxGeometry x="590" y="490" width="120" height="80" as="geometry"/>
                </mxCell>
                <mxCell id="25" value="Met fin à une journée" style="ellipse;whiteSpace=wrap;html=1;" parent="1" vertex="1">
                    <mxGeometry x="590" y="610" width="120" height="80" as="geometry"/>
                </mxCell>
                <mxCell id="26" value="Gère la durée d'un vote" style="ellipse;whiteSpace=wrap;html=1;" parent="1" vertex="1">
                    <mxGeometry x="590" y="720" width="120" height="80" as="geometry"/>
                </mxCell>
                <mxCell id="27" value="" style="endArrow=classic;html=1;dashed=1;entryX=0.758;entryY=0.05;entryDx=0;entryDy=0;entryPerimeter=0;exitX=-0.008;exitY=0.663;exitDx=0;exitDy=0;exitPerimeter=0;" parent="1" source="24" target="22" edge="1">
                    <mxGeometry relative="1" as="geometry">
                        <mxPoint x="593.7919532072508" y="530.0386353392413" as="sourcePoint"/>
                        <mxPoint x="479.99703634380666" y="509.9968758858794" as="targetPoint"/>
                    </mxGeometry>
                </mxCell>
                <mxCell id="29" value="extends" style="edgeLabel;html=1;align=center;verticalAlign=middle;resizable=0;points=[];" parent="27" vertex="1" connectable="0">
                    <mxGeometry x="-0.3227" y="-1" relative="1" as="geometry">
                        <mxPoint as="offset"/>
                    </mxGeometry>
                </mxCell>
                <mxCell id="30" value="" style="endArrow=classic;html=1;dashed=1;entryX=0.975;entryY=0.663;entryDx=0;entryDy=0;entryPerimeter=0;exitX=0.042;exitY=0.288;exitDx=0;exitDy=0;exitPerimeter=0;" parent="1" source="25" target="22" edge="1">
                    <mxGeometry relative="1" as="geometry">
                        <mxPoint x="610" y="590" as="sourcePoint"/>
                        <mxPoint x="491.92" y="595.96" as="targetPoint"/>
                    </mxGeometry>
                </mxCell>
                <mxCell id="31" value="extends" style="edgeLabel;html=1;align=center;verticalAlign=middle;resizable=0;points=[];" parent="30" vertex="1" connectable="0">
                    <mxGeometry x="-0.3227" y="-1" relative="1" as="geometry">
                        <mxPoint as="offset"/>
                    </mxGeometry>
                </mxCell>
                <mxCell id="32" value="" style="endArrow=classic;html=1;dashed=1;entryX=0.733;entryY=0.95;entryDx=0;entryDy=0;entryPerimeter=0;" parent="1" source="26" target="22" edge="1">
                    <mxGeometry relative="1" as="geometry">
                        <mxPoint x="609.04" y="563.04" as="sourcePoint"/>
                        <mxPoint x="490.96000000000004" y="569" as="targetPoint"/>
                    </mxGeometry>
                </mxCell>
                <mxCell id="33" value="extends" style="edgeLabel;html=1;align=center;verticalAlign=middle;resizable=0;points=[];" parent="32" vertex="1" connectable="0">
                    <mxGeometry x="-0.3227" y="-1" relative="1" as="geometry">
                        <mxPoint as="offset"/>
                    </mxGeometry>
                </mxCell>
                <mxCell id="34" value="Distribue les messages envoyés dans le chat" style="ellipse;whiteSpace=wrap;html=1;" parent="1" vertex="1">
                    <mxGeometry x="380" y="810" width="120" height="80" as="geometry"/>
                </mxCell>
                <mxCell id="35" value="" style="endArrow=classic;html=1;" parent="1" source="2" target="34" edge="1">
                    <mxGeometry width="50" height="50" relative="1" as="geometry">
                        <mxPoint x="150" y="610" as="sourcePoint"/>
                        <mxPoint x="200" y="560" as="targetPoint"/>
                    </mxGeometry>
                </mxCell>
            </root>
        </mxGraphModel>
    </diagram>
</mxfile>